<svg width="185" height="59" viewBox="0 0 185 59" fill="none" xmlns="http://www.w3.org/2000/svg">
<g clip-path="url(#clip0_2_80)">
<path d="M52.2589 38.4227V38.1299C52.2709 29.4111 48.7916 21.0448 42.5865 14.8713C36.3815 8.69777 27.9588 5.22286 19.1715 5.21097C10.3842 5.19908 1.9521 8.65119 -4.26993 14.8079C-10.492 20.9645 -13.9942 29.3215 -14.0062 38.0402C-14.2311 38.0799 -14.44 38.1823 -14.6086 38.3353C-14.7771 38.4883 -14.8983 38.6858 -14.9581 38.9046C-15.0178 39.1234 -15.0136 39.3546 -14.946 39.5711C-14.8783 39.7876 -14.75 39.9806 -14.576 40.1275C-14.4021 40.2744 -14.1895 40.3693 -13.9633 40.4009C-13.7371 40.4325 -13.5064 40.3997 -13.2983 40.3062C-13.0901 40.2127 -12.9131 40.0624 -12.7878 39.8729C-12.6625 39.6833 -12.594 39.4623 -12.5905 39.2356C-12.5924 38.9871 -12.6723 38.7453 -12.8191 38.5439C-12.966 38.3425 -13.1724 38.1915 -13.4098 38.1119C-13.4433 29.5517 -10.0482 21.3289 -3.97138 15.2523C2.10547 9.17581 10.3663 5.74335 18.9938 5.71006C27.6214 5.67677 35.9088 9.04538 42.0331 15.0748C48.1575 21.1043 51.6169 29.3007 51.6505 37.8609H19.536V22.7508H19.2348C15.1239 22.7508 11.1815 24.3711 8.27464 27.2552C5.36782 30.1394 3.73479 34.0511 3.73479 38.1299C3.73479 42.2087 5.36782 46.1204 8.27464 49.0045C11.1815 51.8887 15.1239 53.509 19.2348 53.509H19.536V48.291C21.4963 48.2131 23.3927 47.5783 24.9999 46.462C25.1966 46.5958 25.43 46.6667 25.6685 46.6652C25.9068 46.6652 26.1398 46.5951 26.3379 46.4637C26.536 46.3324 26.6904 46.1457 26.7816 45.9272C26.8728 45.7088 26.8967 45.4684 26.8502 45.2365C26.8037 45.0047 26.689 44.7916 26.5205 44.6245C26.352 44.4573 26.1373 44.3434 25.9036 44.2973C25.6699 44.2512 25.4276 44.2749 25.2075 44.3653C24.9873 44.4558 24.7991 44.609 24.6668 44.8056C24.5344 45.0022 24.4637 45.2333 24.4637 45.4698C24.4632 45.6571 24.5087 45.8417 24.5962 46.0077C22.4874 47.447 19.8917 48.0031 17.3723 47.5555C14.8528 47.1079 12.6129 45.6927 11.1384 43.6169C9.65843 41.5272 9.07401 38.9405 9.5133 36.4239C9.95258 33.9074 11.3797 31.6664 13.4818 30.1923C13.6582 30.3289 13.8696 30.414 14.0921 30.4382C14.3146 30.4623 14.5394 30.4244 14.7415 30.3289C14.9435 30.2333 15.1147 30.0838 15.2359 29.8971C15.3571 29.7104 15.4234 29.4938 15.4276 29.2718C15.4276 28.9548 15.3006 28.6507 15.0747 28.4265C14.8487 28.2023 14.5423 28.0764 14.2227 28.0764C13.9032 28.0764 13.5968 28.2023 13.3708 28.4265C13.1449 28.6507 13.0179 28.9548 13.0179 29.2718C13.0184 29.434 13.0512 29.5944 13.1143 29.744C11.4532 30.9142 10.1786 32.5463 9.45127 34.4345C8.72396 36.3226 8.57655 38.3822 9.02763 40.3533C9.47871 42.3245 10.5081 44.119 11.9858 45.5104C13.4636 46.9017 15.3236 47.8277 17.3312 48.1714C17.8646 48.2626 18.4044 48.3126 18.9456 48.3208V52.9292C14.993 52.9292 11.2022 51.3712 8.40719 48.5981C5.61222 45.8249 4.04202 42.0637 4.04202 38.1418C4.04202 34.22 5.61222 30.4588 8.40719 27.6856C11.2022 24.9124 14.993 23.3545 18.9456 23.3545V38.4227H52.2589Z" fill="#00AEAC"/>
<path d="M9.61426 55.4158C9.44715 55.417 9.28212 55.4527 9.12967 55.5207C8.97722 55.5886 8.84067 55.6872 8.72871 55.8103C3.98357 53.1019 0.517136 48.6342 -0.908028 43.39C-2.33319 38.1457 -1.60034 32.5545 1.12932 27.8464C3.85897 23.1383 8.36182 19.6989 13.6473 18.2848C18.9328 16.8708 24.5679 17.5979 29.3131 20.3063C29.2548 20.4508 29.2242 20.6049 29.2227 20.7606C29.2201 21.0316 29.3104 21.2955 29.4788 21.509C29.6472 21.7224 29.8837 21.8727 30.1495 21.9353C30.4154 21.9978 30.6948 21.9688 30.9418 21.8531C31.1889 21.7374 31.389 21.5418 31.5092 21.2984C31.6295 21.055 31.6628 20.7782 31.6038 20.5136C31.5447 20.2489 31.3967 20.012 31.1841 19.8418C30.9715 19.6716 30.7069 19.5781 30.4337 19.5767C30.1605 19.5753 29.8949 19.6661 29.6805 19.8341C25.6521 17.5383 20.9758 16.6175 16.3691 17.2128C11.7624 17.8081 7.47977 19.8868 4.17845 23.1298C0.877127 26.3727 -1.26055 30.6009 -1.90656 35.1655C-2.55258 39.7301 -1.67124 44.379 0.602206 48.3987L-3.8496 50.9509C-5.56984 47.9682 -6.68112 44.6785 -7.12001 41.2697C-7.55889 37.8608 -7.31678 34.3996 -6.40749 31.0836C-4.5711 24.3866 -0.128654 18.6878 5.94257 15.2407C12.0138 11.7936 19.2165 10.8807 25.9661 12.7028C32.7157 14.5248 38.4594 18.9326 41.9335 24.9565C41.7386 25.1538 41.6186 25.412 41.5939 25.6871C41.5692 25.9623 41.6413 26.2375 41.7979 26.4659C41.9546 26.6943 42.1862 26.8618 42.4532 26.9399C42.7203 27.018 43.0064 27.002 43.2629 26.8944C43.5194 26.7869 43.7304 26.5945 43.8601 26.3501C43.9898 26.1056 44.0301 25.8241 43.9743 25.5535C43.9184 25.2828 43.7698 25.0397 43.5537 24.8655C43.3376 24.6913 43.0674 24.5967 42.789 24.5979C42.6726 24.6002 42.557 24.6183 42.4456 24.6517C38.8572 18.5121 32.9576 14.0383 26.0448 12.2146C19.1319 10.3908 11.772 11.3665 5.58414 14.9269C-0.603717 18.4873 -5.11264 24.3409 -6.95072 31.1998C-8.78881 38.0587 -7.80548 45.3612 -4.21707 51.5008L-4.06647 51.7578L0.903412 48.9127C2.74144 51.9845 5.33957 54.5398 8.4516 56.3363C8.43032 56.4245 8.41821 56.5146 8.41546 56.6053C8.41546 56.8417 8.48612 57.0728 8.61851 57.2694C8.7509 57.466 8.93906 57.6192 9.15921 57.7097C9.37937 57.8002 9.62162 57.8238 9.85533 57.7777C10.089 57.7316 10.3037 57.6177 10.4722 57.4505C10.6407 57.2834 10.7555 57.0704 10.8019 56.8385C10.8484 56.6066 10.8246 56.3662 10.7334 56.1478C10.6422 55.9294 10.4878 55.7427 10.2896 55.6113C10.0915 55.4799 9.85857 55.4098 9.62028 55.4098L9.61426 55.4158Z" fill="#00AEAC"/>
<path d="M79.9696 52.3614C79.9696 55.0452 81.7227 57.1431 84.7889 57.1431C85.433 57.1713 86.076 57.0675 86.6779 56.8382C87.2797 56.6089 87.8275 56.259 88.287 55.8103C88.7465 55.3617 89.108 54.8239 89.3488 54.2305C89.5895 53.6371 89.7045 53.0009 89.6865 52.3614C89.6865 49.6179 88.1986 48.6795 85.8251 47.8547L83.4154 47.0299C80.6202 46.0855 79.1022 44.7227 79.1022 41.8656C79.1022 38.4706 81.4516 36.3787 84.7889 36.3787C88.7106 36.3787 90.4576 38.5962 90.4576 42.0988H89.2287C89.2287 39.2716 87.9215 37.3828 84.9215 37.3828C82.5419 37.3828 80.3733 38.4707 80.3733 41.7461C80.3733 44.0772 81.6504 45.2009 83.4937 45.8165L86.6443 46.9103C89.3793 47.8547 90.9516 49.1816 90.9516 52.2897C90.9516 56.0314 88.1564 58.1592 84.807 58.1592C79.8974 58.1592 78.7407 54.7344 78.7407 52.6962V51.2736H79.9877L79.9696 52.3614Z" fill="#00AEAC"/>
<path d="M93.7891 36.7075H99.9999C102.94 36.7075 105.259 38.3871 105.259 42.2184C105.259 44.9918 103.777 47.1376 101.012 47.4364V47.4962C104.488 47.7054 105.114 49.8273 105.114 52.7202V54.9317C105.049 55.9245 105.298 56.9128 105.825 57.7589H104.397C104.004 56.8589 103.821 55.8821 103.861 54.9018V52.7501C103.861 49.7615 103.036 47.9684 99.6445 47.9684H95.0662V57.7589H93.8192L93.7891 36.7075ZM99.018 47.0001C101.367 47.0001 104.012 46.229 104.012 42.2184C104.012 39.3912 102.41 37.7057 99.8252 37.7057H95.0059V47.0001H99.018Z" fill="#00AEAC"/>
<path d="M56.2228 28.0287C53.5252 18.28 47.0353 9.9937 38.1807 4.99227C29.326 -0.00916081 18.8317 -1.31613 9.00598 1.35882C4.13251 2.6741 -0.429254 4.93641 -4.41469 8.01452C-8.40012 11.0926 -11.7299 14.9253 -14.2109 19.2901L-14.3555 19.5471L-9.50005 22.2906L-9.20487 21.7766L-13.5422 19.326C-8.54449 10.7534 -0.332901 4.48952 9.30136 1.90071C18.9356 -0.688097 29.2108 0.60823 37.8855 5.50693C46.5938 10.4231 52.9796 18.5675 55.6407 28.1515C58.3018 37.7355 57.0205 47.9757 52.0783 56.6231C51.8346 56.5699 51.5803 56.5931 51.3504 56.6894C51.1206 56.7857 50.9266 56.9504 50.7951 57.1609C50.6637 57.3713 50.6013 57.617 50.6167 57.8641C50.632 58.1112 50.7243 58.3474 50.8808 58.5403C51.0372 58.7331 51.2502 58.873 51.4902 58.9406C51.7302 59.0082 51.9855 59.0002 52.2207 58.9177C52.456 58.8352 52.6596 58.6823 52.8035 58.48C52.9474 58.2778 53.0245 58.0362 53.024 57.7887C53.0231 57.6185 52.9855 57.4505 52.9138 57.2958C52.8421 57.1412 52.738 57.0036 52.6084 56.8921C55.0973 52.5544 56.6979 47.7715 57.3182 42.8182C57.9385 37.8649 57.5662 32.8388 56.2228 28.0287Z" fill="#171717"/>
<path d="M74.6204 45.9362H65.3192V36.7075H64.0662V57.7589H65.3192V47.0539H74.6204V57.7589H75.8674V36.7075H74.6204V45.9362Z" fill="#171717"/>
<path d="M114.205 39.3791H119.415V57.7587H121.982V39.3791H127.223V37.1257H114.205V39.3791Z" fill="#171717"/>
<path d="M131.711 48.1116H139.428V45.8583H131.711V39.3791H139.892V37.1257H129.145V57.7587H140.247V55.5053H131.711V48.1116Z" fill="#171717"/>
<path d="M149.036 56.0851C145.488 56.0851 145.018 52.2119 145.018 47.4422C145.018 42.6725 145.488 38.8352 149.036 38.8352C151.687 38.8352 152.446 40.8315 152.506 43.1686H155.181C155.066 39.1221 153.289 36.7551 149.036 36.7551C143.301 36.7551 142.337 42.272 142.337 47.4721C142.337 52.6722 143.126 58.195 149.036 58.195C153.578 58.195 155.126 54.6087 155.361 50.7117H152.675C152.59 53.1802 152.156 56.0851 149.036 56.0851Z" fill="#171717"/>
<path d="M167.446 37.1257V45.5654H160.313V37.1257H157.747V57.7587H160.313V47.8188H167.446V57.7587H170.012V37.1257H167.446Z" fill="#171717"/>
</g>
<defs>
<clipPath id="clip0_2_80">
<rect width="185" height="59" fill="white"/>
</clipPath>
</defs>
</svg>
